<svg width="472" height="158" viewBox="0 0 472 158" fill="none" xmlns="http://www.w3.org/2000/svg">
<rect x="203.103" y="41.7015" width="22.1453" height="20.7141" rx="2.63433" fill="#465FFF" stroke="#465FFF" stroke-width="0.752667"/>
<rect x="246.752" y="41.7015" width="22.1453" height="20.7141" rx="2.63433" fill="#465FFF" stroke="#465FFF" stroke-width="0.752667"/>
<rect x="258.201" y="98.2303" width="22.1453" height="20.7141" rx="2.63433" fill="#465FFF" stroke="#465FFF" stroke-width="0.752667"/>
<rect x="191.654" y="98.2303" width="22.1453" height="20.7141" rx="2.63433" fill="#465FFF" stroke="#465FFF" stroke-width="0.752667"/>
<rect x="207.396" y="82.847" width="57.5655" height="20.7141" rx="2.63433" fill="#465FFF" stroke="#465FFF" stroke-width="0.752667"/>
<rect x="152.769" y="15.167" width="166.462" height="130.311" rx="28" stroke="#465FFF" stroke-width="24"/>
<rect x="0.0405273" y="0.522461" width="32.6255" height="77.5957" rx="6.26271" fill="#465FFF"/>
<rect x="0.0405273" y="0.522461" width="32.6255" height="77.5957" rx="6.26271" stroke="#465FFF"/>
<rect x="75.8726" y="3.16748" width="32.6255" height="154.31" rx="6.26271" fill="#465FFF"/>
<rect x="75.8726" y="3.16748" width="32.6255" height="154.31" rx="6.26271" stroke="#465FFF"/>
<rect x="16.7939" y="91.3442" width="32.6255" height="77.5957" rx="6.26271" transform="rotate(-90 16.7939 91.3442)" fill="#465FFF"/>
<rect x="16.7939" y="91.3442" width="32.6255" height="77.5957" rx="6.26271" transform="rotate(-90 16.7939 91.3442)" stroke="#465FFF"/>
<rect x="376.5" y="26.5" width="32.6255" height="45" rx="6.26271" transform="rotate(-40 376.5 26.5)" fill="#465FFF" stroke="#465FFF"/>
<rect x="401.418" y="3.16748" width="32.6255" height="154.31" rx="6.26271" fill="#465FFF" stroke="#465FFF"/>
<rect x="363.502" y="157.48" width="32.6255" height="108.457" rx="6.26271" transform="rotate(-90 363.502 157.48)" fill="#465FFF" stroke="#465FFF"/>
</svg>
